<?xml version="1.0" encoding="UTF-8" standalone="no"?> <svg width="48" height="48" viewBox="0 0 48 48" fill="none" xmlns="http://www.w3.org/2000/svg">
<path d="M42 25.09V24C42 19.2261 40.1036 14.6477 36.7279 11.2721C33.3523 7.89642 28.7739 6 24 6C19.2261 6 14.6477 7.89642 11.2721 11.2721C7.89642 14.6477 6 19.2261 6 24V25.09C4.60346 25.3273 3.33573 26.0505 2.4208 27.132C1.50587 28.2134 1.00263 29.5834 1 31V34C1.00156 35.4429 1.52305 36.8369 2.46891 37.9266C3.41477 39.0163 4.72163 39.7286 6.15 39.933C6.34743 40.5334 6.72909 41.0563 7.24073 41.4274C7.75237 41.7985 8.36796 41.9988 9 42H11C11.7956 42 12.5587 41.6839 13.1213 41.1213C13.6839 40.5587 14 39.7956 14 39V26C14 25.2044 13.6839 24.4413 13.1213 23.8787C12.5587 23.3161 11.7956 23 11 23H9C8.66697 23.0008 8.33642 23.0572 8.022 23.167C8.23684 19.0744 10.0139 15.2202 12.9868 12.3993C15.9597 9.57836 19.9017 8.00576 24 8.00576C28.0983 8.00576 32.0403 9.57836 35.0132 12.3993C37.9861 15.2202 39.7632 19.0744 39.978 23.167C39.6636 23.0572 39.333 23.0008 39 23H37C36.2044 23 35.4413 23.3161 34.8787 23.8787C34.3161 24.4413 34 25.2044 34 26V39C34 39.7956 34.3161 40.5587 34.8787 41.1213C35.4413 41.6839 36.2044 42 37 42H39C39.632 41.9988 40.2476 41.7985 40.7593 41.4274C41.2709 41.0563 41.6526 40.5334 41.85 39.933C43.2784 39.7286 44.5852 39.0163 45.5311 37.9266C46.4769 36.8369 46.9984 35.4429 47 34V31C46.9974 29.5834 46.4941 28.2134 45.5792 27.132C44.6643 26.0505 43.3965 25.3273 42 25.09V25.09ZM3 34V31C3.0011 30.1141 3.29629 29.2536 3.83925 28.5535C4.3822 27.8535 5.1422 27.3535 6 27.132V37.868C5.1422 37.6465 4.3822 37.1465 3.83925 36.4465C3.29629 35.7464 3.0011 34.8859 3 34V34ZM9 25H11C11.2652 25 11.5196 25.1054 11.7071 25.2929C11.8946 25.4804 12 25.7348 12 26V39C12 39.2652 11.8946 39.5196 11.7071 39.7071C11.5196 39.8946 11.2652 40 11 40H9C8.73478 40 8.48043 39.8946 8.29289 39.7071C8.10536 39.5196 8 39.2652 8 39V26C8 25.7348 8.10536 25.4804 8.29289 25.2929C8.48043 25.1054 8.73478 25 9 25V25ZM39 40H37C36.7348 40 36.4804 39.8946 36.2929 39.7071C36.1054 39.5196 36 39.2652 36 39V26C36 25.7348 36.1054 25.4804 36.2929 25.2929C36.4804 25.1054 36.7348 25 37 25H39C39.2652 25 39.5196 25.1054 39.7071 25.2929C39.8946 25.4804 40 25.7348 40 26V39C40 39.2652 39.8946 39.5196 39.7071 39.7071C39.5196 39.8946 39.2652 40 39 40ZM45 34C44.9989 34.8859 44.7037 35.7464 44.1608 36.4465C43.6178 37.1465 42.8578 37.6465 42 37.868V27.132C42.8578 27.3535 43.6178 27.8535 44.1608 28.5535C44.7037 29.2536 44.9989 30.1141 45 31V34Z" fill="black"/>
<path d="M29.945 29.751C28.1731 28.6079 26.1091 28 24.0005 28C21.8919 28 19.8279 28.6079 18.056 29.751C17.8335 29.8954 17.6774 30.1223 17.6222 30.3818C17.567 30.6412 17.6171 30.912 17.7615 31.1345C17.9059 31.357 18.1328 31.5131 18.3923 31.5683C18.6517 31.6235 18.9225 31.5734 19.145 31.429C20.5924 30.4961 22.278 30 24 30C25.722 30 27.4076 30.4961 28.855 31.429C28.9652 31.5006 29.0884 31.5497 29.2176 31.5737C29.3467 31.5977 29.4794 31.5959 29.6079 31.5686C29.7364 31.5413 29.8583 31.489 29.9666 31.4146C30.0749 31.3402 30.1674 31.2452 30.239 31.135C30.3106 31.0248 30.3597 30.9016 30.3837 30.7724C30.4077 30.6433 30.4059 30.5106 30.3786 30.3821C30.3513 30.2536 30.299 30.1317 30.2246 30.0234C30.1502 29.9151 30.0552 29.8226 29.945 29.751V29.751Z" fill="black"/>
<path d="M27.257 32.8C26.252 32.2745 25.1346 32 24.0005 32C22.8664 32 21.749 32.2745 20.744 32.8C20.6278 32.8613 20.5248 32.9448 20.4408 33.0459C20.3569 33.147 20.2937 33.2636 20.2548 33.3891C20.216 33.5146 20.2022 33.6465 20.2143 33.7773C20.2265 33.9081 20.2642 34.0353 20.3255 34.1515C20.3868 34.2677 20.4703 34.3707 20.5714 34.4547C20.6725 34.5386 20.7891 34.6018 20.9146 34.6407C21.0401 34.6795 21.172 34.6933 21.3028 34.6812C21.4336 34.669 21.5608 34.6313 21.677 34.57C22.3948 34.1974 23.1917 34.003 24.0005 34.003C24.8093 34.003 25.6062 34.1974 26.324 34.57C26.5587 34.6937 26.833 34.7191 27.0864 34.6407C27.3399 34.5622 27.5518 34.3862 27.6755 34.1515C27.7992 33.9168 27.8246 33.6425 27.7462 33.3891C27.6677 33.1356 27.4917 32.9237 27.257 32.8V32.8Z" fill="black"/>
<path d="M24 38C24.5523 38 25 37.5523 25 37C25 36.4477 24.5523 36 24 36C23.4477 36 23 36.4477 23 37C23 37.5523 23.4477 38 24 38Z" fill="black"/>
</svg>
